<svg width="40" height="40" viewBox="0 0 40 40" fill="none" xmlns="http://www.w3.org/2000/svg">
<g clip-path="url(#clip0_4259_7791)">
<path d="M28.5109 10H11.4759C10.6598 10 10 10.6442 10 11.4407V28.5461C10 29.3426 10.6598 29.9907 11.4759 29.9907H28.5109C29.327 29.9907 29.9907 29.3426 29.9907 28.55V11.4407C29.9907 10.6442 29.327 10 28.5109 10ZM15.9308 27.0351H12.9635V17.4926H15.9308V27.0351ZM14.4472 16.1924C13.4945 16.1924 12.7253 15.4233 12.7253 14.4745C12.7253 13.5257 13.4945 12.7565 14.4472 12.7565C15.3959 12.7565 16.1651 13.5257 16.1651 14.4745C16.1651 15.4194 15.3959 16.1924 14.4472 16.1924ZM27.0351 27.0351H24.0716V22.3966C24.0716 21.2916 24.0521 19.8665 22.5293 19.8665C20.9871 19.8665 20.7528 21.073 20.7528 22.3185V27.0351H17.7933V17.4926H20.6357V18.7967H20.6747C21.0691 18.047 22.0374 17.2544 23.4781 17.2544C26.4806 17.2544 27.0351 19.2301 27.0351 21.7992V27.0351Z" fill="black"/>
</g>
<defs>
<clipPath id="clip0_4259_7791">
<rect width="19.9907" height="19.9907" fill="white" transform="translate(10 10)"/>
</clipPath>
</defs>
</svg>
