<svg width="130" height="36" viewBox="0 0 130 36" fill="none" xmlns="http://www.w3.org/2000/svg">
<path d="M27.9626 17.7417C27.9346 14.6338 30.5074 13.1218 30.625 13.0514C29.168 10.9271 26.9096 10.6368 26.116 10.6137C24.2192 10.4141 22.3794 11.7486 21.4132 11.7486C20.4277 11.7486 18.9398 10.6329 17.3361 10.6657C15.2726 10.6976 13.3421 11.8923 12.2833 13.7476C10.0982 17.5305 11.7278 23.0896 13.8213 26.1474C14.8685 27.6449 16.0922 29.317 17.6939 29.2582C19.2609 29.1936 19.8462 28.2592 21.7372 28.2592C23.6108 28.2592 24.1604 29.2582 25.7939 29.2206C27.4756 29.1936 28.5344 27.7163 29.545 26.2052C30.7552 24.4888 31.2412 22.7984 31.2605 22.7116C31.2209 22.6981 27.9944 21.4667 27.9626 17.7417Z" fill="black"/>
<path d="M24.8769 8.60215C25.7197 7.54819 26.2963 6.11429 26.1362 4.65918C24.9164 4.71318 23.3909 5.50293 22.5124 6.53376C21.7352 7.44212 21.0409 8.93098 21.2203 10.3311C22.5906 10.4333 23.9974 9.63973 24.8769 8.60215Z" fill="black"/>
<path d="M52.6399 29.0431H50.45L49.2505 25.2737H45.0809L43.9382 29.0431H41.8062L45.9372 16.2103H48.4887L52.6399 29.0431ZM48.8888 23.6922L47.804 20.3413C47.6893 19.999 47.4742 19.1929 47.157 17.9239H47.1184C46.9921 18.4697 46.7886 19.2758 46.509 20.3413L45.4434 23.6922H48.8888Z" fill="black"/>
<path d="M63.2635 24.3027C63.2635 25.8764 62.8383 27.1203 61.9878 28.0335C61.226 28.8464 60.28 29.2524 59.1508 29.2524C57.932 29.2524 57.0564 28.8146 56.5232 27.939H56.4846V32.8135H54.4287V22.836C54.4287 21.8466 54.4027 20.8313 54.3525 19.7898H56.1606L56.2753 21.2565H56.3139C56.9995 20.1514 58.04 19.5999 59.4363 19.5999C60.5278 19.5999 61.4391 20.0309 62.1681 20.8939C62.899 21.7579 63.2635 22.8939 63.2635 24.3027ZM61.1691 24.3779C61.1691 23.4773 60.9666 22.7348 60.5597 22.1504C60.1151 21.541 59.5182 21.2363 58.7699 21.2363C58.2627 21.2363 57.8018 21.406 57.39 21.7406C56.9773 22.0781 56.7073 22.5188 56.581 23.0645C56.5174 23.3191 56.4855 23.5274 56.4855 23.6913V25.2342C56.4855 25.9073 56.6919 26.4752 57.1046 26.9391C57.5173 27.4029 58.0535 27.6343 58.7131 27.6343C59.4874 27.6343 60.0901 27.3354 60.5211 26.7394C60.9531 26.1425 61.1691 25.3557 61.1691 24.3779Z" fill="black"/>
<path d="M73.9066 24.3027C73.9066 25.8764 73.4814 27.1203 72.6299 28.0335C71.8691 28.8464 70.9231 29.2524 69.7939 29.2524C68.5751 29.2524 67.6995 28.8146 67.1672 27.939H67.1286V32.8135H65.0728V22.836C65.0728 21.8466 65.0467 20.8313 64.9966 19.7898H66.8046L66.9194 21.2565H66.9579C67.6426 20.1514 68.6831 19.5999 70.0803 19.5999C71.1709 19.5999 72.0822 20.0309 72.8131 20.8939C73.5411 21.7579 73.9066 22.8939 73.9066 24.3027ZM71.8122 24.3779C71.8122 23.4773 71.6087 22.7348 71.2018 22.1504C70.7572 21.541 70.1623 21.2363 69.413 21.2363C68.9048 21.2363 68.4449 21.406 68.0322 21.7406C67.6194 22.0781 67.3504 22.5188 67.2241 23.0645C67.1614 23.3191 67.1286 23.5274 67.1286 23.6913V25.2342C67.1286 25.9073 67.335 26.4752 67.7458 26.9391C68.1585 27.4019 68.6946 27.6343 69.3561 27.6343C70.1305 27.6343 70.7331 27.3354 71.1642 26.7394C71.5962 26.1425 71.8122 25.3557 71.8122 24.3779Z" fill="black"/>
<path d="M85.8059 25.4444C85.8059 26.536 85.4269 27.4241 84.6661 28.1097C83.8301 28.8589 82.6662 29.2331 81.1706 29.2331C79.7897 29.2331 78.6827 28.9669 77.8447 28.4337L78.3211 26.7202C79.2237 27.2659 80.214 27.5398 81.293 27.5398C82.0673 27.5398 82.67 27.3643 83.103 27.0152C83.534 26.6662 83.7491 26.1975 83.7491 25.6132C83.7491 25.0924 83.5716 24.6537 83.2158 24.2979C82.8619 23.942 82.2708 23.6113 81.4454 23.3056C79.1986 22.4676 78.0762 21.2401 78.0762 19.6259C78.0762 18.571 78.4696 17.706 79.2574 17.0329C80.0423 16.3589 81.0896 16.0223 82.3991 16.0223C83.5668 16.0223 84.5369 16.2258 85.3112 16.6318L84.7972 18.3077C84.074 17.9143 83.2563 17.7176 82.3412 17.7176C81.618 17.7176 81.0529 17.896 80.6479 18.2508C80.3056 18.5681 80.1339 18.9547 80.1339 19.4128C80.1339 19.92 80.3297 20.3395 80.7231 20.6692C81.0654 20.974 81.6874 21.3037 82.59 21.6596C83.6941 22.1041 84.5051 22.6239 85.0268 23.2198C85.5465 23.8138 85.8059 24.5573 85.8059 25.4444Z" fill="black"/>
<path d="M92.6031 21.3327H90.337V25.8253C90.337 26.968 90.7362 27.5389 91.5366 27.5389C91.904 27.5389 92.2087 27.5071 92.4498 27.4434L92.5066 29.0046C92.1016 29.156 91.5684 29.2322 90.9079 29.2322C90.0959 29.2322 89.4614 28.9844 89.0034 28.4897C88.5473 27.994 88.3178 27.1628 88.3178 25.9951V21.3308H86.9678V19.7879H88.3178V18.0937L90.337 17.4843V19.7879H92.6031V21.3327Z" fill="black"/>
<path d="M102.828 24.3403C102.828 25.7626 102.421 26.9304 101.609 27.8436C100.757 28.7837 99.627 29.2524 98.2182 29.2524C96.8605 29.2524 95.7795 28.8021 94.9734 27.9014C94.1672 27.0008 93.7642 25.8639 93.7642 24.4936C93.7642 23.0597 94.1788 21.8852 95.011 20.972C95.8412 20.0579 96.9617 19.6008 98.3706 19.6008C99.7283 19.6008 100.821 20.0512 101.645 20.9528C102.434 21.8274 102.828 22.9566 102.828 24.3403ZM100.694 24.4068C100.694 23.5534 100.512 22.8216 100.143 22.2112C99.7119 21.4725 99.0957 21.1042 98.2973 21.1042C97.4709 21.1042 96.8431 21.4735 96.4121 22.2112C96.0428 22.8225 95.8605 23.566 95.8605 24.4454C95.8605 25.2988 96.0428 26.0307 96.4121 26.6401C96.8566 27.3788 97.4776 27.7471 98.279 27.7471C99.0639 27.7471 99.6801 27.3711 100.125 26.6209C100.504 25.9989 100.694 25.2593 100.694 24.4068Z" fill="black"/>
<path d="M109.51 21.5979C109.307 21.5603 109.09 21.541 108.862 21.541C108.139 21.541 107.58 21.8139 107.186 22.3606C106.844 22.8428 106.672 23.4522 106.672 24.1879V29.0431H104.617L104.637 22.7039C104.637 21.6374 104.611 20.6664 104.56 19.7908H106.35L106.425 21.5612H106.482C106.699 20.9528 107.042 20.4629 107.51 20.0955C107.968 19.7647 108.463 19.5999 108.996 19.5999C109.186 19.5999 109.358 19.6134 109.51 19.6375V21.5979Z" fill="black"/>
<path d="M118.704 23.9786C118.704 24.3469 118.68 24.6574 118.629 24.9111H112.462C112.486 25.8252 112.784 26.5243 113.356 27.0065C113.876 27.4375 114.548 27.6535 115.374 27.6535C116.287 27.6535 117.12 27.5079 117.869 27.2157L118.191 28.6429C117.316 29.0247 116.282 29.2147 115.089 29.2147C113.654 29.2147 112.528 28.7923 111.708 27.9486C110.891 27.1048 110.481 25.9718 110.481 24.5504C110.481 23.1551 110.862 21.9931 111.625 21.0664C112.423 20.0771 113.502 19.5824 114.86 19.5824C116.193 19.5824 117.203 20.0771 117.889 21.0664C118.432 21.8523 118.704 22.8243 118.704 23.9786ZM116.744 23.4453C116.758 22.8359 116.623 22.3094 116.345 21.8649C115.989 21.293 115.442 21.0076 114.706 21.0076C114.034 21.0076 113.488 21.2863 113.07 21.8456C112.728 22.2901 112.524 22.8234 112.462 23.4444H116.744V23.4453Z" fill="black"/>
<path d="M48.2089 8.31567C48.2089 9.45064 47.8686 10.305 47.1887 10.8787C46.559 11.4081 45.6642 11.6733 44.5051 11.6733C43.9304 11.6733 43.4386 11.6483 43.0269 11.5981V5.39677C43.564 5.30998 44.1425 5.26562 44.7674 5.26562C45.8715 5.26562 46.7037 5.50573 47.2649 5.98595C47.8936 6.52884 48.2089 7.30509 48.2089 8.31567ZM47.1434 8.34363C47.1434 7.60788 46.9486 7.04377 46.559 6.65034C46.1695 6.25788 45.6005 6.06116 44.8513 6.06116C44.5331 6.06116 44.2621 6.08238 44.0374 6.12673V10.8411C44.1618 10.8604 44.3894 10.8691 44.7201 10.8691C45.4935 10.8691 46.0904 10.6541 46.5108 10.224C46.9313 9.79392 47.1434 9.16714 47.1434 8.34363Z" fill="black"/>
<path d="M53.8589 9.30704C53.8589 10.0061 53.6593 10.5789 53.26 11.0283C52.8415 11.4902 52.2871 11.7207 51.5947 11.7207C50.9274 11.7207 50.3961 11.4998 49.9998 11.0563C49.6044 10.6137 49.4067 10.0553 49.4067 9.38225C49.4067 8.67832 49.6102 8.10072 50.0191 7.65232C50.4279 7.20393 50.9776 6.97925 51.6699 6.97925C52.3372 6.97925 52.8734 7.20007 53.2793 7.64268C53.665 8.07275 53.8589 8.62818 53.8589 9.30704ZM52.8107 9.33983C52.8107 8.92036 52.72 8.56068 52.5397 8.26079C52.3276 7.89821 52.0257 7.71693 51.6333 7.71693C51.2273 7.71693 50.9187 7.89821 50.7066 8.26079C50.5253 8.56068 50.4356 8.92615 50.4356 9.35815C50.4356 9.77761 50.5263 10.1373 50.7066 10.4372C50.9255 10.7998 51.2302 10.981 51.6236 10.981C52.0094 10.981 52.3121 10.7969 52.5301 10.4275C52.7171 10.1219 52.8107 9.75929 52.8107 9.33983Z" fill="black"/>
<path d="M61.4342 7.07178L60.0119 11.6174H59.0862L58.497 9.64353C58.3475 9.15078 58.226 8.66092 58.1315 8.17492H58.1132C58.0255 8.67442 57.904 9.16332 57.7478 9.64353L57.1219 11.6174H56.1856L54.8481 7.07178H55.8867L56.4006 9.23275C56.525 9.74382 56.6273 10.2308 56.7092 10.6917H56.7275C56.8028 10.3118 56.9271 9.82771 57.1026 9.24239L57.7478 7.07274H58.5713L59.1894 9.19611C59.3388 9.71393 59.4603 10.2125 59.5539 10.6927H59.5818C59.6503 10.225 59.7535 9.72646 59.8904 9.19611L60.442 7.07274H61.4342V7.07178Z" fill="black"/>
<path d="M66.6734 11.6174H65.6628V9.01386C65.6628 8.21157 65.3581 7.81043 64.7467 7.81043C64.4469 7.81043 64.2048 7.92036 64.0168 8.14118C63.8307 8.362 63.7362 8.62236 63.7362 8.92032V11.6165H62.7256V8.37068C62.7256 7.97146 62.7131 7.5385 62.689 7.06985H63.5771L63.6243 7.78054H63.6523C63.7699 7.55971 63.9454 7.37746 64.1759 7.23186C64.4498 7.06214 64.7564 6.97632 65.092 6.97632C65.5162 6.97632 65.8692 7.11325 66.1498 7.38807C66.4989 7.72461 66.6734 8.227 66.6734 8.89429V11.6174Z" fill="black"/>
<path d="M69.4603 11.6175H68.4507V4.98608H69.4603V11.6175Z" fill="black"/>
<path d="M75.4096 9.30704C75.4096 10.0061 75.21 10.5789 74.8108 11.0283C74.3923 11.4902 73.8369 11.7207 73.1455 11.7207C72.4772 11.7207 71.9459 11.4998 71.5506 11.0563C71.1552 10.6137 70.9575 10.0553 70.9575 9.38225C70.9575 8.67832 71.161 8.10072 71.5698 7.65232C71.9787 7.20393 72.5283 6.97925 73.2197 6.97925C73.888 6.97925 74.4232 7.20007 74.8301 7.64268C75.2158 8.07275 75.4096 8.62818 75.4096 9.30704ZM74.3605 9.33983C74.3605 8.92036 74.2699 8.56068 74.0895 8.26079C73.8784 7.89821 73.5756 7.71693 73.1841 7.71693C72.7771 7.71693 72.4686 7.89821 72.2574 8.26079C72.0761 8.56068 71.9864 8.92615 71.9864 9.35815C71.9864 9.77761 72.0771 10.1373 72.2574 10.4372C72.4763 10.7998 72.781 10.981 73.1744 10.981C73.5601 10.981 73.862 10.7969 74.0799 10.4275C74.2679 10.1219 74.3605 9.75929 74.3605 9.33983Z" fill="black"/>
<path d="M80.3006 11.6175H79.3932L79.318 11.0939H79.2901C78.9796 11.5114 78.537 11.7207 77.9622 11.7207C77.5331 11.7207 77.186 11.5828 76.9247 11.3089C76.6875 11.0601 76.5688 10.7506 76.5688 10.3832C76.5688 9.82776 76.8003 9.40443 77.266 9.11129C77.7308 8.81815 78.3846 8.67447 79.2264 8.68122V8.59636C79.2264 7.99754 78.9121 7.69861 78.2824 7.69861C77.834 7.69861 77.4386 7.81143 77.0973 8.03514L76.8919 7.37171C77.3142 7.11039 77.8359 6.97925 78.4511 6.97925C79.6391 6.97925 80.2351 7.60604 80.2351 8.85961V10.5336C80.2351 10.9878 80.2572 11.3494 80.3006 11.6175ZM79.2515 10.0553V9.35429C78.1368 9.335 77.5794 9.64068 77.5794 10.2704C77.5794 10.5076 77.6431 10.685 77.7732 10.8036C77.9034 10.9222 78.0693 10.981 78.267 10.981C78.4887 10.981 78.6961 10.9107 78.8851 10.7708C79.075 10.63 79.1917 10.4516 79.2351 10.2328C79.2457 10.1836 79.2515 10.1238 79.2515 10.0553Z" fill="black"/>
<path d="M86.0429 11.6175H85.1461L85.0989 10.8875H85.0709C84.7845 11.443 84.2966 11.7207 83.611 11.7207C83.0633 11.7207 82.6071 11.5056 82.2455 11.0756C81.8839 10.6455 81.7036 10.0872 81.7036 9.40156C81.7036 8.66581 81.8994 8.06988 82.2928 7.61473C82.6737 7.19045 83.1404 6.9783 83.6958 6.9783C84.3062 6.9783 84.7334 7.1837 84.9764 7.59545H84.9957V4.98608H86.0072V10.3928C86.0072 10.8355 86.0188 11.2434 86.0429 11.6175ZM84.9957 9.70049V8.94256C84.9957 8.81142 84.986 8.70534 84.9677 8.62434C84.9108 8.38134 84.7884 8.17691 84.6023 8.01202C84.4142 7.84713 84.1876 7.7642 83.9263 7.7642C83.5493 7.7642 83.2542 7.91366 83.0372 8.21356C82.8222 8.51345 82.7132 8.89627 82.7132 9.36395C82.7132 9.81331 82.8164 10.1778 83.0237 10.4584C83.2426 10.7573 83.5377 10.9068 83.907 10.9068C84.2387 10.9068 84.5039 10.7824 84.7054 10.5327C84.9002 10.3022 84.9957 10.0245 84.9957 9.70049Z" fill="black"/>
<path d="M94.686 9.30704C94.686 10.0061 94.4864 10.5789 94.0872 11.0283C93.6687 11.4902 93.1152 11.7207 92.4219 11.7207C91.7555 11.7207 91.2242 11.4998 90.8269 11.0563C90.4316 10.6137 90.2339 10.0553 90.2339 9.38225C90.2339 8.67832 90.4374 8.10072 90.8462 7.65232C91.2551 7.20393 91.8047 6.97925 92.498 6.97925C93.1644 6.97925 93.7015 7.20007 94.1065 7.64268C94.4922 8.07275 94.686 8.62818 94.686 9.30704ZM93.6388 9.33983C93.6388 8.92036 93.5481 8.56068 93.3678 8.26079C93.1547 7.89821 92.8539 7.71693 92.4604 7.71693C92.0554 7.71693 91.7469 7.89821 91.5337 8.26079C91.3525 8.56068 91.2628 8.92615 91.2628 9.35815C91.2628 9.77761 91.3534 10.1373 91.5337 10.4372C91.7526 10.7998 92.0574 10.981 92.4508 10.981C92.8365 10.981 93.1403 10.7969 93.3582 10.4275C93.5443 10.1219 93.6388 9.75929 93.6388 9.33983Z" fill="black"/>
<path d="M100.12 11.6174H99.1101V9.01386C99.1101 8.21157 98.8054 7.81043 98.1931 7.81043C97.8932 7.81043 97.6511 7.92036 97.4641 8.14118C97.277 8.362 97.1834 8.62236 97.1834 8.92032V11.6165H96.1719V8.37068C96.1719 7.97146 96.1603 7.5385 96.1362 7.06985H97.0234L97.0706 7.78054H97.0986C97.2172 7.55971 97.3927 7.37746 97.6222 7.23186C97.897 7.06214 98.2027 6.97632 98.5392 6.97632C98.9626 6.97632 99.3155 7.11325 99.5961 7.38807C99.9461 7.72461 100.12 8.227 100.12 8.89429V11.6174Z" fill="black"/>
<path d="M106.921 7.82886H105.808V10.0371C105.808 10.5983 106.006 10.8789 106.397 10.8789C106.578 10.8789 106.729 10.8635 106.848 10.8317L106.874 11.5983C106.674 11.6735 106.412 11.7111 106.089 11.7111C105.689 11.7111 105.379 11.5896 105.154 11.3466C104.929 11.1036 104.817 10.6947 104.817 10.121V7.82886H104.152V7.07189H104.817V6.23875L105.807 5.93982V7.07093H106.92V7.82886H106.921Z" fill="black"/>
<path d="M112.271 11.6175H111.259V9.0332C111.259 8.21838 110.954 7.81048 110.344 7.81048C109.875 7.81048 109.555 8.04674 109.38 8.51924C109.35 8.61856 109.332 8.74006 109.332 8.88277V11.6165H108.323V4.98608H109.332V7.72563H109.352C109.67 7.22709 110.126 6.9783 110.717 6.9783C111.136 6.9783 111.482 7.11523 111.757 7.39005C112.099 7.73238 112.271 8.24152 112.271 8.9146V11.6175Z" fill="black"/>
<path d="M117.789 9.12962C117.789 9.31091 117.776 9.46327 117.752 9.58766H114.721C114.735 10.037 114.879 10.3793 115.16 10.6166C115.416 10.8287 115.747 10.9348 116.152 10.9348C116.6 10.9348 117.009 10.8634 117.378 10.7197L117.536 11.4217C117.105 11.6088 116.598 11.7023 116.01 11.7023C115.306 11.7023 114.752 11.495 114.351 11.0804C113.948 10.6657 113.748 10.1093 113.748 9.4112C113.748 8.72559 113.934 8.15473 114.309 7.69958C114.701 7.21358 115.23 6.97058 115.898 6.97058C116.552 6.97058 117.049 7.21358 117.384 7.69958C117.655 8.0853 117.789 8.56262 117.789 9.12962ZM116.825 8.8683C116.833 8.56841 116.766 8.30998 116.629 8.09205C116.454 7.81144 116.187 7.67065 115.825 7.67065C115.495 7.67065 115.226 7.80758 115.021 8.08241C114.853 8.3013 114.754 8.56262 114.721 8.8683H116.825Z" fill="black"/>
</svg>
