<svg width="40" height="40" viewBox="0 0 40 40" fill="none" xmlns="http://www.w3.org/2000/svg">
<g clip-path="url(#clip0_4259_7785)">
<path d="M16.2889 28.1166C23.8307 28.1166 27.9569 21.8668 27.9569 16.4486C27.9569 16.2729 27.953 16.0933 27.9452 15.9176C28.7479 15.3371 29.4405 14.6181 29.9907 13.7943C29.2432 14.1269 28.4495 14.3441 27.6367 14.4386C28.4925 13.9256 29.1332 13.1198 29.4402 12.1705C28.6351 12.6476 27.7547 12.9841 26.8367 13.1657C26.2182 12.5085 25.4003 12.0733 24.5097 11.9275C23.619 11.7817 22.7051 11.9333 21.9093 12.359C21.1134 12.7847 20.48 13.4607 20.1068 14.2825C19.7337 15.1042 19.6417 16.0261 19.845 16.9054C18.2149 16.8236 16.6202 16.4001 15.1643 15.6625C13.7083 14.9248 12.4236 13.8894 11.3935 12.6234C10.8699 13.5261 10.7097 14.5943 10.9454 15.6108C11.1811 16.6274 11.7951 17.5161 12.6624 18.0962C12.0113 18.0756 11.3743 17.9002 10.8043 17.5848V17.6355C10.8037 18.5828 11.1312 19.5011 11.7311 20.2342C12.331 20.9674 13.1663 21.4702 14.095 21.6571C13.4918 21.8221 12.8587 21.8462 12.2447 21.7274C12.5067 22.5421 13.0166 23.2546 13.7031 23.7656C14.3896 24.2765 15.2185 24.5604 16.0741 24.5776C14.6215 25.7186 12.8272 26.3375 10.98 26.3346C10.6524 26.3341 10.3252 26.314 10 26.2745C11.8765 27.4784 14.0594 28.1178 16.2889 28.1166Z" fill="black"/>
</g>
<defs>
<clipPath id="clip0_4259_7785">
<rect width="19.9907" height="19.9907" fill="white" transform="translate(10 10)"/>
</clipPath>
</defs>
</svg>
