<svg width="40" height="40" viewBox="0 0 40 40" fill="none" xmlns="http://www.w3.org/2000/svg">
<g clip-path="url(#clip0_4259_7788)">
<path d="M19.9954 11.7999C22.666 11.7999 22.9822 11.8117 24.0325 11.8585C25.0087 11.9015 25.5357 12.0654 25.8871 12.2021C26.3518 12.3817 26.6876 12.6004 27.0351 12.9478C27.3865 13.2992 27.6012 13.6311 27.7808 14.0958C27.9175 14.4472 28.0814 14.9782 28.1244 15.9504C28.1712 17.0046 28.183 17.3208 28.183 19.9875C28.183 22.6582 28.1712 22.9744 28.1244 24.0247C28.0814 25.0008 27.9175 25.5279 27.7808 25.8793C27.6012 26.344 27.3825 26.6798 27.0351 27.0272C26.6837 27.3786 26.3518 27.5934 25.8871 27.773C25.5357 27.9096 25.0047 28.0736 24.0325 28.1166C22.9783 28.1634 22.6621 28.1751 19.9954 28.1751C17.3247 28.1751 17.0085 28.1634 15.9582 28.1166C14.9821 28.0736 14.455 27.9096 14.1036 27.773C13.6389 27.5934 13.3032 27.3747 12.9557 27.0272C12.6043 26.6758 12.3895 26.344 12.2099 25.8793C12.0733 25.5279 11.9093 24.9969 11.8663 24.0247C11.8195 22.9705 11.8078 22.6543 11.8078 19.9875C11.8078 17.3169 11.8195 17.0007 11.8663 15.9504C11.9093 14.9743 12.0733 14.4472 12.2099 14.0958C12.3895 13.6311 12.6082 13.2953 12.9557 12.9478C13.3071 12.5965 13.6389 12.3817 14.1036 12.2021C14.455 12.0654 14.986 11.9015 15.9582 11.8585C17.0085 11.8117 17.3247 11.7999 19.9954 11.7999ZM19.9954 10C17.2818 10 16.9421 10.0117 15.8762 10.0586C14.8142 10.1054 14.084 10.2772 13.4515 10.5232C12.7917 10.7809 12.2333 11.1206 11.6789 11.6789C11.1206 12.2333 10.7809 12.7917 10.5232 13.4476C10.2772 14.084 10.1054 14.8103 10.0586 15.8723C10.0117 16.9421 10 17.2818 10 19.9954C10 22.7089 10.0117 23.0486 10.0586 24.1145C10.1054 25.1765 10.2772 25.9067 10.5232 26.5392C10.7809 27.199 11.1206 27.7574 11.6789 28.3118C12.2333 28.8662 12.7917 29.2098 13.4476 29.4636C14.084 29.7096 14.8103 29.8814 15.8723 29.9282C16.9382 29.9751 17.2779 29.9868 19.9915 29.9868C22.705 29.9868 23.0447 29.9751 24.1106 29.9282C25.1726 29.8814 25.9028 29.7096 26.5353 29.4636C27.1912 29.2098 27.7496 28.8662 28.304 28.3118C28.8584 27.7574 29.202 27.199 29.4558 26.5431C29.7018 25.9067 29.8736 25.1804 29.9204 24.1184C29.9673 23.0525 29.979 22.7128 29.979 19.9993C29.979 17.2857 29.9673 16.946 29.9204 15.8801C29.8736 14.8181 29.7018 14.0879 29.4558 13.4554C29.2098 12.7917 28.8701 12.2333 28.3118 11.6789C27.7574 11.1245 27.199 10.7809 26.5431 10.5271C25.9067 10.2811 25.1804 10.1093 24.1184 10.0625C23.0486 10.0117 22.7089 10 19.9954 10Z" fill="black"/>
<path d="M19.9952 14.8611C17.1606 14.8611 14.8608 17.1608 14.8608 19.9954C14.8608 22.83 17.1606 25.1297 19.9952 25.1297C22.8298 25.1297 25.1295 22.83 25.1295 19.9954C25.1295 17.1608 22.8298 14.8611 19.9952 14.8611ZM19.9952 23.3259C18.1562 23.3259 16.6647 21.8344 16.6647 19.9954C16.6647 18.1564 18.1562 16.6649 19.9952 16.6649C21.8342 16.6649 23.3257 18.1564 23.3257 19.9954C23.3257 21.8344 21.8342 23.3259 19.9952 23.3259Z" fill="black"/>
<path d="M26.5316 14.6584C26.5316 15.3221 25.9928 15.857 25.3329 15.857C24.6692 15.857 24.1343 15.3182 24.1343 14.6584C24.1343 13.9946 24.6731 13.4597 25.3329 13.4597C25.9928 13.4597 26.5316 13.9985 26.5316 14.6584Z" fill="black"/>
</g>
<defs>
<clipPath id="clip0_4259_7788">
<rect width="19.9907" height="19.9907" fill="white" transform="translate(10 10)"/>
</clipPath>
</defs>
</svg>
