<svg width="130" height="36" viewBox="0 0 130 36" fill="none" xmlns="http://www.w3.org/2000/svg">
<path d="M45.6612 8.63074C45.6612 9.41579 45.4204 10.0445 44.9462 10.5135C44.4009 11.0693 43.6907 11.349 42.8204 11.349C41.9887 11.349 41.2785 11.0646 40.6959 10.504C40.1121 9.93524 39.8208 9.23716 39.8208 8.40157C39.8208 7.56598 40.1121 6.8679 40.6959 6.30379C41.2785 5.73851 41.9887 5.4541 42.8204 5.4541C43.2345 5.4541 43.6293 5.53754 44.0061 5.69267C44.3816 5.84898 44.6874 6.06052 44.9089 6.32142L44.4057 6.81736C44.0193 6.37195 43.4933 6.15219 42.8204 6.15219C42.2138 6.15219 41.6877 6.35903 41.2412 6.77623C40.7994 7.19461 40.5779 7.73639 40.5779 8.40157C40.5779 9.06675 40.7994 9.61323 41.2412 10.0316C41.6877 10.4441 42.2138 10.6557 42.8204 10.6557C43.4644 10.6557 44.0061 10.4441 44.4334 10.0269C44.7151 9.75073 44.8752 9.36996 44.9173 8.88341H42.8204V8.20413H45.6178C45.6515 8.35103 45.6612 8.49324 45.6612 8.63074Z" fill="black"/>
<path d="M50.0991 6.2757H47.4714V8.06205H49.8403V8.74133H47.4714V10.5277H50.0991V11.2199H46.7275V5.5835H50.0991V6.2757Z" fill="black"/>
<path d="M53.2316 11.2199H52.4877V6.2757H50.876V5.5835H54.8446V6.2757H53.2316V11.2199Z" fill="black"/>
<path d="M57.7163 11.2199V5.5835H58.459V11.2199H57.7163Z" fill="black"/>
<path d="M61.7511 11.2199H61.0133V6.2757H59.3955V5.5835H63.3689V6.2757H61.7511V11.2199Z" fill="black"/>
<path d="M70.8825 10.4946C70.3131 11.0646 69.6078 11.349 68.7664 11.349C67.9202 11.349 67.2148 11.0646 66.6455 10.4946C66.0773 9.92584 65.7944 9.22775 65.7944 8.40157C65.7944 7.57539 66.0773 6.8773 66.6455 6.30849C67.2148 5.73851 67.9202 5.4541 68.7664 5.4541C69.603 5.4541 70.3083 5.73851 70.8777 6.31319C71.4506 6.8867 71.7335 7.58009 71.7335 8.40157C71.7335 9.22775 71.4506 9.92584 70.8825 10.4946ZM67.1955 10.0222C67.6241 10.4441 68.1453 10.6557 68.7664 10.6557C69.3827 10.6557 69.9087 10.4441 70.3324 10.0222C70.7597 9.6003 70.9764 9.05852 70.9764 8.40157C70.9764 7.74462 70.7597 7.20284 70.3324 6.78093C69.9087 6.35903 69.3827 6.14749 68.7664 6.14749C68.1453 6.14749 67.6241 6.35903 67.1955 6.78093C66.7682 7.20284 66.5516 7.74462 66.5516 8.40157C66.5516 9.05852 66.7682 9.6003 67.1955 10.0222Z" fill="black"/>
<path d="M72.7773 11.2199V5.5835H73.6801L76.4872 9.96709H76.5197L76.4872 8.88353V5.5835H77.2298V11.2199H76.4547L73.5152 6.62005H73.4827L73.5152 7.7083V11.2199H72.7773Z" fill="black"/>
<path d="M65.6115 19.4513C63.3497 19.4513 61.5021 21.1319 61.5021 23.4506C61.5021 25.7505 63.3497 27.4487 65.6115 27.4487C67.8781 27.4487 69.7258 25.7505 69.7258 23.4506C69.7258 21.1319 67.8781 19.4513 65.6115 19.4513ZM65.6115 25.8739C64.3705 25.8739 63.3028 24.8738 63.3028 23.4506C63.3028 22.0086 64.3705 21.0261 65.6115 21.0261C66.8525 21.0261 67.925 22.0086 67.925 23.4506C67.925 24.8738 66.8525 25.8739 65.6115 25.8739ZM56.6451 19.4513C54.3785 19.4513 52.5357 21.1319 52.5357 23.4506C52.5357 25.7505 54.3785 27.4487 56.6451 27.4487C58.9105 27.4487 60.7545 25.7505 60.7545 23.4506C60.7545 21.1319 58.9105 19.4513 56.6451 19.4513ZM56.6451 25.8739C55.4029 25.8739 54.3316 24.8738 54.3316 23.4506C54.3316 22.0086 55.4029 21.0261 56.6451 21.0261C57.8861 21.0261 58.9538 22.0086 58.9538 23.4506C58.9538 24.8738 57.8861 25.8739 56.6451 25.8739ZM45.9755 20.6771V22.3765H50.1319C50.0103 23.3261 49.6853 24.0241 49.187 24.5107C48.5803 25.0983 47.6354 25.7505 45.9755 25.7505C43.4176 25.7505 41.4146 23.735 41.4146 21.2377C41.4146 18.7403 43.4176 16.7248 45.9755 16.7248C47.3585 16.7248 48.3648 17.2525 49.1075 17.9365L50.3341 16.7389C49.2953 15.7705 47.9134 15.0266 45.9755 15.0266C42.4679 15.0266 39.52 17.8131 39.52 21.2377C39.52 24.6623 42.4679 27.4487 45.9755 27.4487C47.8713 27.4487 49.2953 26.8423 50.4147 25.7047C51.5619 24.5847 51.9194 23.0099 51.9194 21.7383C51.9194 21.3434 51.8857 20.9803 51.8255 20.6771H45.9755ZM89.6049 21.9945C89.2667 21.1002 88.2231 19.4513 86.0973 19.4513C83.9908 19.4513 82.237 21.072 82.237 23.4506C82.237 25.6906 83.9728 27.4487 86.2995 27.4487C88.1809 27.4487 89.2667 26.3288 89.7132 25.6765L88.3169 24.7681C87.8511 25.4332 87.2168 25.8739 86.2995 25.8739C85.3883 25.8739 84.7347 25.4661 84.3158 24.6623L89.7939 22.4493L89.6049 21.9945ZM84.0197 23.3261C83.9728 21.7842 85.2463 20.9944 86.1587 20.9944C86.8737 20.9944 87.4804 21.3434 87.6826 21.8429L84.0197 23.3261ZM79.5672 27.2055H81.368V15.4532H79.5672V27.2055ZM76.6182 20.3422H76.558C76.1535 19.8744 75.382 19.4513 74.4045 19.4513C72.3534 19.4513 70.4781 21.2095 70.4781 23.4636C70.4781 25.7047 72.3534 27.4487 74.4045 27.4487C75.382 27.4487 76.1535 27.0221 76.558 26.5403H76.6182V27.1138C76.6182 28.6428 75.7816 29.4643 74.4322 29.4643C73.332 29.4643 72.6495 28.6886 72.3679 28.0364L70.8019 28.6745C71.2532 29.7346 72.4485 31.0391 74.4322 31.0391C76.5435 31.0391 78.325 29.8262 78.325 26.8752V19.6946H76.6182V20.3422ZM74.5586 25.8739C73.3176 25.8739 72.2788 24.8597 72.2788 23.4636C72.2788 22.0545 73.3176 21.0261 74.5586 21.0261C75.7816 21.0261 76.7458 22.0545 76.7458 23.4636C76.7458 24.8597 75.7816 25.8739 74.5586 25.8739ZM98.0356 15.4532H93.7288V27.2055H95.5247V22.7525H98.0356C100.03 22.7525 101.986 21.3434 101.986 19.1023C101.986 16.8623 100.025 15.4532 98.0356 15.4532ZM98.0826 21.1178H95.5247V17.088H98.0826C99.4235 17.088 100.189 18.175 100.189 19.1023C100.189 20.0119 99.4235 21.1178 98.0826 21.1178ZM109.184 19.429C107.887 19.429 106.537 19.9884 105.982 21.2283L107.576 21.8805C107.919 21.2283 108.55 21.0167 109.217 21.0167C110.149 21.0167 111.093 21.5632 111.108 22.5281V22.6515C110.783 22.4681 110.087 22.1967 109.231 22.1967C107.515 22.1967 105.766 23.1192 105.766 24.8409C105.766 26.4157 107.172 27.4299 108.752 27.4299C109.961 27.4299 110.628 26.8976 111.046 26.2782H111.108V27.1867H112.842V22.6785C112.842 20.5948 111.249 19.429 109.184 19.429ZM108.968 25.8692C108.38 25.8692 107.562 25.5848 107.562 24.8738C107.562 23.9642 108.582 23.6152 109.466 23.6152C110.257 23.6152 110.628 23.7856 111.108 24.01C110.967 25.0983 110.008 25.8692 108.968 25.8692ZM119.162 19.6864L117.097 24.781H117.036L114.902 19.6864H112.965L116.172 26.8059L114.342 30.7676H116.219L121.16 19.6864H119.162ZM102.973 27.2055H104.774V15.4532H102.973V27.2055Z" fill="black"/>
<path d="M10.0486 6.08757C9.76575 6.37668 9.60205 6.82679 9.60205 7.4097V28.2018C9.60205 28.7847 9.76575 29.2348 10.0486 29.5239L10.1184 29.5874L22.052 17.9409V17.6659L10.1184 6.01941L10.0486 6.08757Z" fill="url(#paint0_linear_3952_8463)"/>
<path d="M26.0252 21.8252L22.0518 17.9411V17.6661L26.03 13.7819L26.1191 13.8325L30.8304 16.4497C32.1749 17.1925 32.1749 18.4147 30.8304 19.1621L26.1191 21.7747L26.0252 21.8252Z" fill="url(#paint1_linear_3952_8463)"/>
<path d="M26.119 21.7749L22.0517 17.8038L10.0483 29.5244C10.4949 29.9827 11.2232 30.0379 12.0513 29.5796L26.119 21.7749Z" fill="url(#paint2_linear_3952_8463)"/>
<path d="M26.119 13.8326L12.0513 6.02794C11.2232 5.57431 10.4949 5.62954 10.0483 6.08788L22.0517 17.8037L26.119 13.8326Z" fill="url(#paint3_linear_3952_8463)"/>
<defs>
<linearGradient id="paint0_linear_3952_8463" x1="20.9924" y1="28.4183" x2="5.21843" y2="12.2621" gradientUnits="userSpaceOnUse">
<stop stop-color="#00A0FF"/>
<stop offset="0.0066" stop-color="#00A1FF"/>
<stop offset="0.2601" stop-color="#00BEFF"/>
<stop offset="0.5122" stop-color="#00D2FF"/>
<stop offset="0.7604" stop-color="#00DFFF"/>
<stop offset="1" stop-color="#00E3FF"/>
</linearGradient>
<linearGradient id="paint1_linear_3952_8463" x1="32.5812" y1="17.8023" x2="9.28046" y2="17.8023" gradientUnits="userSpaceOnUse">
<stop stop-color="#FFE000"/>
<stop offset="0.4087" stop-color="#FFBD00"/>
<stop offset="0.7754" stop-color="#FFA500"/>
<stop offset="1" stop-color="#FF9C00"/>
</linearGradient>
<linearGradient id="paint2_linear_3952_8463" x1="23.9073" y1="15.6451" x2="2.51651" y2="-6.26404" gradientUnits="userSpaceOnUse">
<stop stop-color="#FF3A44"/>
<stop offset="1" stop-color="#C31162"/>
</linearGradient>
<linearGradient id="paint3_linear_3952_8463" x1="7.02685" y1="36.4417" x2="16.5788" y2="26.6584" gradientUnits="userSpaceOnUse">
<stop stop-color="#32A071"/>
<stop offset="0.0685" stop-color="#2DA771"/>
<stop offset="0.4762" stop-color="#15CF74"/>
<stop offset="0.8009" stop-color="#06E775"/>
<stop offset="1" stop-color="#00F076"/>
</linearGradient>
</defs>
</svg>
